<svg width="17" height="16" viewBox="0 0 17 16" fill="none" xmlns="http://www.w3.org/2000/svg">
<g clip-path="url(#clip0_1243_15260)">
<path d="M15.583 8C15.583 12.0041 12.3371 15.25 8.33301 15.25C4.32894 15.25 1.08301 12.0041 1.08301 8C1.08301 3.99594 4.32894 0.75 8.33301 0.75C12.3371 0.75 15.583 3.99594 15.583 8Z" fill="#F0F0F0" stroke="#EEF2FF" stroke-width="1.5"/>
<path d="M16.3331 7.99996C16.3331 4.56025 14.1621 1.6279 11.1157 0.497559V15.5024C14.1621 14.372 16.3331 11.4397 16.3331 7.99996V7.99996Z" fill="#D80027"/>
<path d="M0.333008 7.99996C0.333008 11.4397 2.50404 14.372 5.55041 15.5024V0.497559C2.50404 1.6279 0.333008 4.56025 0.333008 7.99996Z" fill="#0052B4"/>
</g>
<defs>
<clipPath id="clip0_1243_15260">
<rect width="16" height="16" fill="white" transform="translate(0.333008)"/>
</clipPath>
</defs>
</svg>
