<svg width="164" height="29" viewBox="0 0 164 29" fill="none" xmlns="http://www.w3.org/2000/svg">
<rect width="164" height="28" fill="white"/>
<path d="M19.7332 9.85565L16.1479 1.99485C15.7922 1.21481 14.684 1.21481 14.3283 1.99485L10.743 9.85565C10.5805 10.212 10.2249 10.4407 9.83318 10.4407H2.52783C1.62141 10.4407 1.1826 11.5499 1.8437 12.17L7.67185 17.6368C7.93365 17.8823 8.04376 18.2494 7.96035 18.5985L6.21173 25.9178C6.0145 26.7434 6.87065 27.4238 7.63036 27.0452L14.7921 23.4765C15.073 23.3365 15.4032 23.3365 15.6841 23.4765L22.8458 27.0452C23.6055 27.4238 24.4617 26.7434 24.2645 25.9178L22.5112 18.579C22.4303 18.2404 22.5313 17.8841 22.7779 17.6383L28.2859 12.149C28.9175 11.5195 28.4717 10.4407 27.58 10.4407H20.643C20.2513 10.4407 19.8957 10.212 19.7332 9.85565Z" fill="#2906D1" stroke="#2906D1" stroke-width="2"/>
<path d="M53.0703 9.8441L49.6452 2.07539C49.2945 1.27995 48.1658 1.27995 47.8151 2.07539L44.39 9.8441C44.2301 10.2067 43.8713 10.4407 43.475 10.4407H36.4666C35.5684 10.4407 35.1256 11.5329 35.7702 12.1584L41.4205 17.641C41.6718 17.8849 41.7772 18.2424 41.6984 18.5837L40.0094 25.8974C39.8178 26.7272 40.6849 27.4015 41.4419 27.0112L48.272 23.4904C48.5595 23.3422 48.9009 23.3422 49.1884 23.4904L56.0184 27.0112C56.7754 27.4015 57.6426 26.7272 57.4509 25.8974L55.7574 18.5644C55.681 18.2336 55.7776 17.8867 56.014 17.6431L61.3547 12.1369C61.9699 11.5027 61.5205 10.4407 60.6369 10.4407H53.9853C53.5891 10.4407 53.2302 10.2067 53.0703 9.8441Z" fill="#2906D1" stroke="#2906D1" stroke-width="2"/>
<path d="M86.7332 9.85565L83.1479 1.99485C82.7922 1.21481 81.684 1.21481 81.3283 1.99485L77.743 9.85565C77.5805 10.212 77.2249 10.4407 76.8332 10.4407H69.5278C68.6214 10.4407 68.1826 11.5499 68.8437 12.17L74.6719 17.6368C74.9337 17.8823 75.0438 18.2494 74.9604 18.5985L73.2117 25.9178C73.0145 26.7434 73.8707 27.4238 74.6304 27.0452L81.7921 23.4765C82.073 23.3365 82.4032 23.3365 82.6841 23.4765L89.8458 27.0452C90.6055 27.4238 91.4617 26.7434 91.2645 25.9178L89.5112 18.579C89.4303 18.2404 89.5313 17.8841 89.7779 17.6383L95.2859 12.149C95.9175 11.5195 95.4717 10.4407 94.58 10.4407H87.643C87.2513 10.4407 86.8957 10.212 86.7332 9.85565Z" fill="#2906D1" stroke="#2906D1" stroke-width="2"/>
<path d="M120.07 9.8441L116.645 2.07539C116.294 1.27995 115.166 1.27995 114.815 2.07539L111.39 9.8441C111.23 10.2067 110.871 10.4407 110.475 10.4407H103.467C102.568 10.4407 102.126 11.5329 102.77 12.1584L108.42 17.641C108.672 17.8849 108.777 18.2424 108.698 18.5837L107.009 25.8974C106.818 26.7272 107.685 27.4015 108.442 27.0112L115.272 23.4904C115.559 23.3422 115.901 23.3422 116.188 23.4904L123.018 27.0112C123.775 27.4015 124.643 26.7272 124.451 25.8974L122.757 18.5644C122.681 18.2336 122.778 17.8867 123.014 17.6431L128.355 12.1369C128.97 11.5027 128.52 10.4407 127.637 10.4407H120.985C120.589 10.4407 120.23 10.2067 120.07 9.8441Z" fill="#2906D1" stroke="#2906D1" stroke-width="2"/>
<path d="M153.733 9.85565L150.148 1.99485C149.792 1.21481 148.684 1.21481 148.328 1.99485L144.743 9.85565C144.58 10.212 144.225 10.4407 143.833 10.4407H136.528C135.621 10.4407 135.183 11.5499 135.844 12.17L141.672 17.6368C141.934 17.8823 142.044 18.2494 141.96 18.5985L140.212 25.9178C140.014 26.7434 140.871 27.4238 141.63 27.0452L148.792 23.4765C149.073 23.3365 149.403 23.3365 149.684 23.4765L156.846 27.0452C157.606 27.4238 158.462 26.7434 158.264 25.9178L156.511 18.579C156.43 18.2404 156.531 17.8841 156.778 17.6383L162.286 12.149C162.917 11.5195 162.472 10.4407 161.58 10.4407H154.643C154.251 10.4407 153.896 10.212 153.733 9.85565Z" fill="#2906D1" stroke="#2906D1" stroke-width="2"/>
</svg>
