<svg width="15" height="21" viewBox="0 0 15 21" fill="none" xmlns="http://www.w3.org/2000/svg">
<path d="M7.5 20.625C5.685 20.625 4.2 20.394 3.045 19.932C1.89 19.4693 1.3125 18.8708 1.3125 18.1365C1.3125 17.8095 1.46438 17.496 1.76813 17.196C2.07188 16.896 2.49112 16.6361 3.02587 16.4164C3.15862 16.3444 3.30413 16.3309 3.46238 16.3759C3.61988 16.4209 3.73463 16.5097 3.80662 16.6425C3.87862 16.7745 3.88763 16.9159 3.83363 17.0666C3.77963 17.2174 3.68625 17.3288 3.5535 17.4008C3.30825 17.4878 3.07388 17.5961 2.85038 17.7259C2.62688 17.8556 2.49338 17.9854 2.44988 18.1151C2.57888 18.4879 3.12338 18.8119 4.08338 19.0871C5.04338 19.3624 6.18225 19.5 7.5 19.5C8.81775 19.5 9.95662 19.3624 10.9166 19.0871C11.8766 18.8119 12.4208 18.4879 12.549 18.1151C12.5063 17.9854 12.3731 17.8556 12.1496 17.7259C11.9261 17.5961 11.6918 17.4881 11.4465 17.4019C11.3138 17.3299 11.22 17.2185 11.1653 17.0677C11.112 16.917 11.1214 16.7752 11.1934 16.6425C11.2654 16.5097 11.3805 16.4209 11.5387 16.3759C11.697 16.3309 11.8421 16.3448 11.9741 16.4175C12.5089 16.6365 12.9281 16.896 13.2319 17.196C13.5356 17.496 13.6875 17.8095 13.6875 18.1365C13.6875 18.8715 13.11 19.47 11.955 19.932C10.8 20.394 9.315 20.625 7.5 20.625ZM7.52812 15.8438C9.39862 14.3888 10.7993 12.9649 11.73 11.5721C12.6608 10.1794 13.1257 8.81063 13.125 7.46588C13.125 5.49638 12.519 4.0095 11.307 3.00525C10.0965 2.00175 8.8275 1.5 7.5 1.5C6.1875 1.5 4.92188 2.00213 3.70312 3.00638C2.48438 4.01063 1.875 5.4975 1.875 7.467C1.875 8.76675 2.33812 10.107 3.26437 11.4878C4.18987 12.8685 5.61112 14.3205 7.52812 15.8438ZM7.5 16.8022C7.3185 16.8022 7.137 16.7685 6.9555 16.701C6.77325 16.6335 6.60262 16.539 6.44362 16.4175C4.53412 14.8568 3.108 13.3346 2.16525 11.8511C1.2225 10.3676 0.75075 8.90625 0.75 7.467C0.75 6.294 0.952875 5.26725 1.35862 4.38675C1.76512 3.50625 2.29275 2.76825 2.9415 2.17275C3.59025 1.57725 4.31512 1.12875 5.11612 0.82725C5.91712 0.52575 6.71175 0.375 7.5 0.375C8.28825 0.375 9.08325 0.52575 9.885 0.82725C10.6853 1.12875 11.4097 1.57725 12.0585 2.17275C12.7072 2.76825 13.2349 3.50625 13.6414 4.38675C14.0479 5.26725 14.2507 6.294 14.25 7.467C14.25 8.90625 13.7783 10.3676 12.8348 11.8511C11.8913 13.3346 10.4647 14.8564 8.55525 16.4164C8.397 16.5379 8.22675 16.6324 8.0445 16.6999C7.863 16.7681 7.6815 16.8022 7.5 16.8022ZM7.5 9.1365C8.00325 9.1365 8.43187 8.96325 8.78587 8.61675C9.13987 8.2695 9.31687 7.83713 9.31687 7.31963C9.31687 6.81638 9.13987 6.38775 8.78587 6.03375C8.43187 5.67975 8.00325 5.50275 7.5 5.50275C7.011 5.50275 6.58575 5.67975 6.22425 6.03375C5.86275 6.38775 5.682 6.81638 5.682 7.31963C5.682 7.83713 5.86275 8.2695 6.22425 8.61675C6.58575 8.964 7.011 9.13725 7.5 9.1365Z" fill="#090909"/>
</svg>
