<svg width="231" height="41" viewBox="0 0 231 41" fill="none" xmlns="http://www.w3.org/2000/svg">
<rect width="231" height="40" fill="white"/>
<path d="M28.3995 14.3314L22.7506 1.98708C22.3943 1.20857 21.2882 1.20857 20.932 1.98708L15.2831 14.3314C15.1203 14.6871 14.765 14.9153 14.3738 14.9153H2.53397C1.62675 14.9153 1.18834 16.0262 1.85106 16.6458L11.178 25.3652C11.4408 25.6109 11.5514 25.9789 11.4675 26.3288L8.68912 37.9197C8.49132 38.7449 9.34642 39.4259 10.1064 39.0485L21.3965 33.4413C21.6767 33.3021 22.0059 33.3021 22.2861 33.4413L33.5762 39.0485C34.3361 39.4259 35.1912 38.7449 34.9934 37.9197L32.2104 26.3092C32.129 25.9698 32.2305 25.6126 32.4781 25.3667L41.279 16.6247C41.9122 15.9957 41.4668 14.9153 40.5743 14.9153H29.3088C28.9176 14.9153 28.5623 14.6871 28.3995 14.3314Z" fill="#2906D1" stroke="#2906D1" stroke-width="2"/>
<path d="M75.3995 14.3314L69.7506 1.98708C69.3943 1.20857 68.2882 1.20857 67.932 1.98708L62.2831 14.3314C62.1203 14.6871 61.765 14.9153 61.3738 14.9153H49.534C48.6268 14.9153 48.1883 16.0262 48.8511 16.6458L58.178 25.3652C58.4408 25.6109 58.5514 25.9789 58.4675 26.3288L55.6891 37.9197C55.4913 38.7449 56.3464 39.4259 57.1064 39.0485L68.3965 33.4413C68.6767 33.3021 69.0059 33.3021 69.2861 33.4413L80.5762 39.0485C81.3361 39.4259 82.1912 38.7449 81.9934 37.9197L79.2104 26.3092C79.129 25.9698 79.2305 25.6126 79.4781 25.3667L88.279 16.6247C88.9122 15.9957 88.4668 14.9153 87.5743 14.9153H76.3088C75.9176 14.9153 75.5623 14.6871 75.3995 14.3314Z" fill="#2906D1" stroke="#2906D1" stroke-width="2"/>
<path d="M122.399 14.3314L116.751 1.98708C116.394 1.20857 115.288 1.20857 114.932 1.98708L109.283 14.3314C109.12 14.6871 108.765 14.9153 108.374 14.9153H96.534C95.6268 14.9153 95.1883 16.0262 95.8511 16.6458L105.178 25.3652C105.441 25.6109 105.551 25.9789 105.467 26.3288L102.689 37.9197C102.491 38.7449 103.346 39.4259 104.106 39.0485L115.396 33.4413C115.677 33.3021 116.006 33.3021 116.286 33.4413L127.576 39.0485C128.336 39.4259 129.191 38.7449 128.993 37.9197L126.21 26.3092C126.129 25.9698 126.23 25.6126 126.478 25.3667L135.279 16.6247C135.912 15.9957 135.467 14.9153 134.574 14.9153H123.309C122.918 14.9153 122.562 14.6871 122.399 14.3314Z" fill="#2906D1" stroke="#2906D1" stroke-width="2"/>
<path d="M169.399 14.3314L163.751 1.98708C163.394 1.20857 162.288 1.20857 161.932 1.98708L156.283 14.3314C156.12 14.6871 155.765 14.9153 155.374 14.9153H143.534C142.627 14.9153 142.188 16.0262 142.851 16.6458L152.178 25.3652C152.441 25.6109 152.551 25.9789 152.467 26.3288L149.689 37.9197C149.491 38.7449 150.346 39.4259 151.106 39.0485L162.396 33.4413C162.677 33.3021 163.006 33.3021 163.286 33.4413L174.576 39.0485C175.336 39.4259 176.191 38.7449 175.993 37.9197L173.21 26.3092C173.129 25.9698 173.23 25.6126 173.478 25.3667L182.279 16.6247C182.912 15.9957 182.467 14.9153 181.574 14.9153H170.309C169.918 14.9153 169.562 14.6871 169.399 14.3314Z" fill="#2906D1" stroke="#2906D1" stroke-width="2"/>
<path d="M216.399 14.3314L210.751 1.98708C210.394 1.20857 209.288 1.20857 208.932 1.98708L203.283 14.3314C203.12 14.6871 202.765 14.9153 202.374 14.9153H190.534C189.627 14.9153 189.188 16.0262 189.851 16.6458L199.178 25.3652C199.441 25.6109 199.551 25.9789 199.467 26.3288L196.689 37.9197C196.491 38.7449 197.346 39.4259 198.106 39.0485L209.396 33.4413C209.677 33.3021 210.006 33.3021 210.286 33.4413L221.576 39.0485C222.336 39.4259 223.191 38.7449 222.993 37.9197L220.21 26.3092C220.129 25.9698 220.23 25.6126 220.478 25.3667L229.279 16.6247C229.912 15.9957 229.467 14.9153 228.574 14.9153H217.309C216.918 14.9153 216.562 14.6871 216.399 14.3314Z" stroke="#2906D1" stroke-width="2"/>
</svg>
