<svg width="60" height="60" viewBox="0 0 60 60" fill="none" xmlns="http://www.w3.org/2000/svg">
<mask id="path-1-inside-1_629_620" fill="white">
<path d="M0 30C0 13.4315 13.4315 0 30 0C46.5685 0 60 13.4315 60 30C60 46.5685 46.5685 60 30 60C13.4315 60 0 46.5685 0 30Z"/>
</mask>
<path d="M0 0H60H0ZM60 60H0H60ZM0 60V0V60ZM40 0C56.5685 0 70 13.4315 70 30C70 46.5685 56.5685 60 40 60H30C41.0457 60 50 46.5685 50 30C50 13.4315 41.0457 0 30 0H40Z" fill="#FBE11A" mask="url(#path-1-inside-1_629_620)"/>
</svg>
